<svg xmlns="http://www.w3.org/2000/svg" xmlns:xlink="http://www.w3.org/1999/xlink" version="1.2" viewBox="0 0 450 147.232" height="196.309" width="600"><defs><symbol id="k" overflow="visible"><path d="M4.922-21.984c0-3.282.398-6.282 1.203-9 .8-2.727 1.945-5.067 3.438-7.016 1.5-1.945 3.304-3.453 5.421-4.516 2.125-1.07 4.508-1.609 7.157-1.609 2.375 0 4.468.406 6.28 1.219a13.95 13.95 0 0 1 4.767 3.5V-61.5h9.609V0h-8.688l-.468-4.406c-1.368 1.687-3.008 2.98-4.922 3.875C26.812.352 24.594.797 22.062.797c-2.617 0-4.98-.555-7.093-1.656-2.106-1.102-3.899-2.63-5.375-4.579C8.114-7.394 6.96-9.71 6.14-12.39c-.813-2.687-1.22-5.601-1.22-8.75zm9.578.843c0 1.95.18 3.778.547 5.485.375 1.71.969 3.203 1.781 4.484.82 1.281 1.863 2.293 3.125 3.031 1.27.73 2.785 1.094 4.547 1.094 2.188 0 3.973-.473 5.36-1.422 1.394-.945 2.503-2.222 3.328-3.828v-18.812c-.825-1.57-1.938-2.828-3.344-3.766-1.399-.938-3.153-1.406-5.266-1.406-1.781 0-3.308.375-4.578 1.125-1.273.75-2.313 1.781-3.125 3.093-.813 1.305-1.414 2.825-1.797 4.563-.387 1.73-.578 3.57-.578 5.516zm0 0"/></symbol><symbol id="l" overflow="visible"><path d="M4.438-22.063c0-3.125.457-6.03 1.375-8.718.925-2.696 2.25-5.035 3.968-7.016 1.727-1.976 3.832-3.523 6.313-4.64 2.476-1.126 5.297-1.688 8.453-1.688 3.176 0 6.008.563 8.5 1.688 2.5 1.117 4.61 2.664 6.328 4.64 1.727 1.98 3.047 4.32 3.953 7.016.906 2.687 1.36 5.593 1.36 8.718v.844c0 3.149-.454 6.07-1.36 8.766-.906 2.7-2.226 5.031-3.953 7-1.719 1.96-3.824 3.5-6.313 4.625C30.582.285 27.77.844 24.626.844c-3.18 0-6.016-.559-8.516-1.672-2.492-1.125-4.601-2.664-6.328-4.625-1.719-1.969-3.043-4.3-3.969-7-.917-2.695-1.375-5.617-1.375-8.766zm9.578.844c0 1.969.203 3.824.609 5.563.414 1.742 1.055 3.273 1.922 4.594.875 1.312 1.976 2.351 3.312 3.109 1.332.762 2.922 1.14 4.766 1.14 1.79 0 3.344-.378 4.656-1.14 1.32-.758 2.414-1.797 3.282-3.11.874-1.32 1.515-2.851 1.921-4.593.414-1.739.625-3.594.625-5.563v-.843c0-1.915-.21-3.743-.625-5.485-.406-1.738-1.047-3.258-1.922-4.562a9.869 9.869 0 0 0-3.28-3.125c-1.313-.77-2.891-1.157-4.735-1.157-1.813 0-3.39.387-4.735 1.157a9.584 9.584 0 0 0-3.28 3.125c-.856 1.304-1.493 2.824-1.907 4.562a24.082 24.082 0 0 0-.61 5.485zm0 0"/></symbol><symbol id="m" overflow="visible"><path d="M14.422-14.25l.265 2.766.454-2.766 6.203-29.078h6.281l6.281 29.39.453 2.891.36-3.172 4.203-29.11h8.64L39.126 0h-8.047L24.5-28.984l-.078-.532-.078.485L17.89 0h-8L1.437-43.328h8.61zm0 0"/></symbol><symbol id="n" overflow="visible"><path d="M14.86-43.328l.593 6.016c1.57-2.165 3.473-3.844 5.703-5.032 2.227-1.187 4.707-1.781 7.438-1.781 2.207 0 4.222.324 6.047.969a11.99 11.99 0 0 1 4.734 3c1.32 1.355 2.348 3.117 3.078 5.281.738 2.168 1.11 4.773 1.11 7.813V0H34v-26.906c0-1.79-.21-3.285-.625-4.485-.418-1.195-1.008-2.156-1.766-2.875-.761-.726-1.687-1.242-2.78-1.547-1.095-.312-2.337-.468-3.72-.468-2.117 0-3.953.468-5.515 1.406a10.896 10.896 0 0 0-3.782 3.797V0H6.204v-43.328zm0 0"/></symbol><symbol id="o" overflow="visible"><path d="M7.969-61.5H31.39v53.578h13.218V0H7.97v-7.922h13.765v-45.61H7.97zm0 0"/></symbol><symbol id="p" overflow="visible"><path d="M33.828 0a9.193 9.193 0 0 1-.656-1.875 25.917 25.917 0 0 1-.453-2.328c-.668.7-1.422 1.351-2.266 1.953a16.463 16.463 0 0 1-2.812 1.578c-1.024.45-2.125.8-3.313 1.063-1.187.27-2.465.406-3.828.406-2.293 0-4.371-.324-6.234-.969C12.41-.828 10.82-1.734 9.5-2.89A12.38 12.38 0 0 1 6.437-7C5.72-8.582 5.36-10.29 5.36-12.125c0-4.645 1.727-8.195 5.188-10.656 3.457-2.457 8.414-3.688 14.875-3.688h7.015v-2.843c0-2.29-.777-4.11-2.328-5.454-1.554-1.351-3.742-2.03-6.562-2.03-1.281 0-2.406.155-3.375.468-.961.305-1.762.719-2.406 1.25a5.15 5.15 0 0 0-1.438 1.89 5.745 5.745 0 0 0-.469 2.313H6.281c0-1.676.395-3.305 1.188-4.89.789-1.594 1.945-3.008 3.468-4.25 1.52-1.239 3.38-2.235 5.579-2.985 2.195-.75 4.71-1.125 7.547-1.125 2.562 0 4.937.32 7.125.953 2.187.625 4.082 1.559 5.687 2.797a13.059 13.059 0 0 1 3.766 4.64c.906 1.856 1.359 4.024 1.359 6.5v19.297c0 1.899.14 3.626.422 5.188.281 1.563.687 2.918 1.219 4.063V0zM22.297-6.922c1.226 0 2.383-.148 3.469-.453 1.082-.313 2.054-.71 2.922-1.203.863-.5 1.609-1.067 2.234-1.703.633-.645 1.14-1.301 1.515-1.969v-8.125h-6.093c-3.899 0-6.774.633-8.625 1.89-1.856 1.25-2.782 3.032-2.782 5.344 0 .887.145 1.711.438 2.47.29.76.738 1.417 1.344 1.968.601.543 1.363.976 2.281 1.297.914.324 2.016.484 3.297.484zm0 0"/></symbol><symbol id="q" overflow="visible"><path d="M3.094-24.89H17.89v3.406h-5.375v18.093h5.375V0H3.094v-3.39h5.265v-18.094H3.094zm0 0"/></symbol><symbol id="r" overflow="visible"><path d="M18.64 0h-4.124l-8.11-17.125L6.391 0H2.234v-24.89h4.157l8.062 17.078.047-17.079h4.14zm0 0"/></symbol><symbol id="s" overflow="visible"><path d="M19.422-10.828a15.48 15.48 0 0 1-.578 4.234c-.375 1.344-.938 2.532-1.688 3.563A8.293 8.293 0 0 1 14.36-.562c-1.117.601-2.43.906-3.937.906-1.492 0-2.79-.309-3.89-.922a8.339 8.339 0 0 1-2.766-2.469c-.73-1.031-1.282-2.219-1.657-3.562a15.934 15.934 0 0 1-.546-4.22v-3.187c0-.976.078-1.93.234-2.859.164-.938.41-1.816.734-2.64.332-.833.739-1.598 1.219-2.297a8.2 8.2 0 0 1 1.703-1.797 7.617 7.617 0 0 1 2.219-1.188c.832-.281 1.742-.422 2.734-.422 1.5 0 2.813.309 3.938.922a8.462 8.462 0 0 1 2.812 2.469c.75 1.031 1.313 2.226 1.688 3.578a15.5 15.5 0 0 1 .578 4.234zm-4.125-3.219a16.979 16.979 0 0 0-.266-2.781c-.156-.926-.422-1.75-.797-2.469a4.902 4.902 0 0 0-1.5-1.765c-.617-.446-1.39-.672-2.328-.672-.918 0-1.683.226-2.297.672a4.641 4.641 0 0 0-1.453 1.765c-.355.73-.605 1.555-.75 2.469a18.343 18.343 0 0 0-.234 2.781v3.219c.008.93.086 1.851.234 2.765.157.918.41 1.747.766 2.485.363.73.848 1.324 1.453 1.781.613.461 1.379.688 2.297.688.937 0 1.71-.227 2.328-.688a4.988 4.988 0 0 0 1.5-1.781c.375-.727.64-1.55.797-2.469a18.04 18.04 0 0 0 .25-2.781zm0 0"/></symbol><symbol id="t" overflow="visible"><path d="M10.453-6.234l5.188-18.657h4.468L12.422 0H8.516L.844-24.89h4.468zm0 0"/></symbol><symbol id="u" overflow="visible"><path d="M14.61-5.781H6.843L5.125 0H.891l8.078-24.89h3.61L20.515 0H16.28zm-6.735-3.5h5.719l-2.828-9.75zm0 0"/></symbol><symbol id="v" overflow="visible"><path d="M20.172-21.5h-7.64V0H8.436v-21.5H.86v-3.39h19.313zm0 0"/></symbol><clipPath id="a"><path d="M523.16 296.316h8.88v8.88h-8.88zm0 0"/></clipPath><linearGradient gradientTransform="rotate(141.054 225.125 238.529) scale(50.88882)" x2=".692" x1=".447" gradientUnits="userSpaceOnUse" id="b"><stop offset="0" stop-color="#ef7974"/><stop offset=".016" stop-color="#ef7974"/><stop offset=".031" stop-color="#ef7974"/><stop offset=".047" stop-color="#ef7874"/><stop offset=".063" stop-color="#ef7875"/><stop offset=".078" stop-color="#ee7775"/><stop offset=".094" stop-color="#ee7675"/><stop offset=".109" stop-color="#ee7676"/><stop offset=".125" stop-color="#ee7575"/><stop offset=".141" stop-color="#ee7475"/><stop offset=".156" stop-color="#ee7476"/><stop offset=".172" stop-color="#ee7376"/><stop offset=".188" stop-color="#ee7377"/><stop offset=".203" stop-color="#ee7277"/><stop offset=".219" stop-color="#ee7176"/><stop offset=".234" stop-color="#ee7177"/><stop offset=".25" stop-color="#ee7077"/><stop offset=".266" stop-color="#ed6f77"/><stop offset=".281" stop-color="#ed6f78"/><stop offset=".297" stop-color="#ed6e78"/><stop offset=".313" stop-color="#ed6d77"/><stop offset=".328" stop-color="#ed6d78"/><stop offset=".344" stop-color="#ed6c78"/><stop offset=".359" stop-color="#ed6b78"/><stop offset=".375" stop-color="#ed6b79"/><stop offset=".391" stop-color="#ed6a79"/><stop offset=".406" stop-color="#ed6b79"/><stop offset=".422" stop-color="#ed6a79"/><stop offset=".438" stop-color="#ed6979"/><stop offset=".453" stop-color="#ed697a"/><stop offset=".469" stop-color="#ed687a"/><stop offset=".484" stop-color="#ec677a"/><stop offset=".5" stop-color="#ec677a"/><stop offset=".516" stop-color="#ec667a"/><stop offset=".531" stop-color="#ec657a"/><stop offset=".547" stop-color="#ec657a"/><stop offset=".563" stop-color="#ec647a"/><stop offset=".578" stop-color="#ec637a"/><stop offset=".594" stop-color="#ec637b"/><stop offset=".609" stop-color="#ec627a"/><stop offset=".625" stop-color="#ec627b"/><stop offset=".641" stop-color="#ec617b"/><stop offset=".656" stop-color="#ec607b"/><stop offset=".672" stop-color="#ec607b"/><stop offset=".688" stop-color="#ec5f7b"/><stop offset=".703" stop-color="#ec5e7b"/><stop offset=".719" stop-color="#ec5e7b"/><stop offset=".734" stop-color="#eb5d7b"/><stop offset=".75" stop-color="#eb5c7b"/><stop offset=".766" stop-color="#eb5c7c"/><stop offset=".781" stop-color="#eb5b7c"/><stop offset=".797" stop-color="#eb5b7c"/><stop offset=".813" stop-color="#eb597c"/><stop offset=".828" stop-color="#eb587c"/><stop offset=".844" stop-color="#eb587c"/><stop offset=".859" stop-color="#eb577c"/><stop offset=".875" stop-color="#eb567c"/><stop offset=".891" stop-color="#eb567d"/><stop offset=".906" stop-color="#ea557c"/><stop offset=".922" stop-color="#ea547c"/><stop offset=".938" stop-color="#ea547d"/><stop offset=".953" stop-color="#ea537d"/><stop offset=".969" stop-color="#ea527d"/><stop offset=".984" stop-color="#ea527d"/><stop offset="1" stop-color="#ea507d"/></linearGradient><clipPath id="c"><path d="M532.04 296.316h8.878v8.88h-8.879zm0 0"/></clipPath><linearGradient gradientTransform="translate(532.039 300.757) scale(8.87801)" x2="1" gradientUnits="userSpaceOnUse" id="d"><stop offset="0" stop-color="#2fac66"/><stop offset=".004" stop-color="#30ac66"/><stop offset=".008" stop-color="#2eab67"/><stop offset=".012" stop-color="#2eab68"/><stop offset=".016" stop-color="#2eaa69"/><stop offset=".02" stop-color="#2caa68"/><stop offset=".023" stop-color="#2ca969"/><stop offset=".027" stop-color="#2ca96a"/><stop offset=".031" stop-color="#2da96a"/><stop offset=".035" stop-color="#2ba86a"/><stop offset=".039" stop-color="#2ba76b"/><stop offset=".043" stop-color="#2ba76c"/><stop offset=".047" stop-color="#2ba76c"/><stop offset=".051" stop-color="#29a66c"/><stop offset=".055" stop-color="#29a66d"/><stop offset=".059" stop-color="#2aa66d"/><stop offset=".063" stop-color="#2aa56e"/><stop offset=".066" stop-color="#28a56e"/><stop offset=".07" stop-color="#28a46e"/><stop offset=".074" stop-color="#29a46f"/><stop offset=".078" stop-color="#29a36f"/><stop offset=".082" stop-color="#27a370"/><stop offset=".086" stop-color="#27a270"/><stop offset=".09" stop-color="#28a271"/><stop offset=".094" stop-color="#28a271"/><stop offset=".098" stop-color="#26a171"/><stop offset=".102" stop-color="#26a072"/><stop offset=".105" stop-color="#27a072"/><stop offset=".109" stop-color="#27a072"/><stop offset=".113" stop-color="#259f73"/><stop offset=".117" stop-color="#259f73"/><stop offset=".121" stop-color="#269e74"/><stop offset=".125" stop-color="#269e74"/><stop offset=".129" stop-color="#239d74"/><stop offset=".133" stop-color="#239d75"/><stop offset=".137" stop-color="#249d75"/><stop offset=".141" stop-color="#249c75"/><stop offset=".145" stop-color="#219c76"/><stop offset=".148" stop-color="#229b77"/><stop offset=".152" stop-color="#229b76"/><stop offset=".156" stop-color="#239b77"/><stop offset=".16" stop-color="#209a77"/><stop offset=".164" stop-color="#219a77"/><stop offset=".168" stop-color="#219978"/><stop offset=".172" stop-color="#229978"/><stop offset=".176" stop-color="#1f9878"/><stop offset=".18" stop-color="#209879"/><stop offset=".184" stop-color="#209779"/><stop offset=".188" stop-color="#21977a"/><stop offset=".191" stop-color="#1e967a"/><stop offset=".195" stop-color="#1e967a"/><stop offset=".199" stop-color="#1f957b"/><stop offset=".203" stop-color="#20957b"/><stop offset=".207" stop-color="#1d947b"/><stop offset=".211" stop-color="#1d947c"/><stop offset=".215" stop-color="#1e947b"/><stop offset=".219" stop-color="#1f937c"/><stop offset=".223" stop-color="#1b937c"/><stop offset=".227" stop-color="#1c927d"/><stop offset=".23" stop-color="#1d927d"/><stop offset=".234" stop-color="#1d927d"/><stop offset=".238" stop-color="#1a917e"/><stop offset=".242" stop-color="#1b917d"/><stop offset=".246" stop-color="#1c907e"/><stop offset=".25" stop-color="#1d907e"/><stop offset=".254" stop-color="#1a8f7f"/><stop offset=".258" stop-color="#1b8f7f"/><stop offset=".262" stop-color="#1b8e7f"/><stop offset=".266" stop-color="#1c8e80"/><stop offset=".27" stop-color="#198d7f"/><stop offset=".273" stop-color="#1a8d80"/><stop offset=".277" stop-color="#1b8c80"/><stop offset=".281" stop-color="#1c8c80"/><stop offset=".285" stop-color="#198b80"/><stop offset=".289" stop-color="#1a8b81"/><stop offset=".293" stop-color="#1a8a81"/><stop offset=".297" stop-color="#1c8a81"/><stop offset=".301" stop-color="#198981"/><stop offset=".305" stop-color="#198982"/><stop offset=".309" stop-color="#1b8882"/><stop offset=".313" stop-color="#1a8882"/><stop offset=".316" stop-color="#178883"/><stop offset=".32" stop-color="#188783"/><stop offset=".324" stop-color="#198783"/><stop offset=".328" stop-color="#1a8783"/><stop offset=".332" stop-color="#178683"/><stop offset=".336" stop-color="#188583"/><stop offset=".34" stop-color="#198584"/><stop offset=".344" stop-color="#1a8584"/><stop offset=".348" stop-color="#178484"/><stop offset=".352" stop-color="#188384"/><stop offset=".355" stop-color="#198384"/><stop offset=".359" stop-color="#1a8385"/><stop offset=".363" stop-color="#178284"/><stop offset=".367" stop-color="#188185"/><stop offset=".371" stop-color="#198185"/><stop offset=".375" stop-color="#1a8185"/><stop offset=".379" stop-color="#188085"/><stop offset=".383" stop-color="#187f86"/><stop offset=".387" stop-color="#1a7f85"/><stop offset=".391" stop-color="#1b7e86"/><stop offset=".395" stop-color="#187e86"/><stop offset=".398" stop-color="#177e86"/><stop offset=".402" stop-color="#197d86"/><stop offset=".406" stop-color="#1a7d86"/><stop offset=".41" stop-color="#177c87"/><stop offset=".414" stop-color="#187c86"/><stop offset=".418" stop-color="#197b87"/><stop offset=".422" stop-color="#1a7b87"/><stop offset=".426" stop-color="#177a87"/><stop offset=".43" stop-color="#187a87"/><stop offset=".434" stop-color="#197987"/><stop offset=".438" stop-color="#1a7987"/><stop offset=".441" stop-color="#187887"/><stop offset=".445" stop-color="#197787"/><stop offset=".449" stop-color="#1a7788"/><stop offset=".453" stop-color="#1b7787"/><stop offset=".457" stop-color="#197688"/><stop offset=".461" stop-color="#197588"/><stop offset=".465" stop-color="#1a7588"/><stop offset=".469" stop-color="#1b7488"/><stop offset=".473" stop-color="#197488"/><stop offset=".477" stop-color="#1a7388"/><stop offset=".48" stop-color="#1b7388"/><stop offset=".484" stop-color="#1c7288"/><stop offset=".488" stop-color="#197289"/><stop offset=".492" stop-color="#1a7289"/><stop offset=".496" stop-color="#1b7189"/><stop offset=".5" stop-color="#1b7189"/><stop offset=".504" stop-color="#197089"/><stop offset=".508" stop-color="#1a7089"/><stop offset=".512" stop-color="#1b6f89"/><stop offset=".516" stop-color="#1c6f89"/><stop offset=".52" stop-color="#1a6e89"/><stop offset=".523" stop-color="#1b6d89"/><stop offset=".527" stop-color="#1c6d89"/><stop offset=".531" stop-color="#1d6c8a"/><stop offset=".535" stop-color="#1b6c89"/><stop offset=".539" stop-color="#1c6b89"/><stop offset=".543" stop-color="#1d6b8a"/><stop offset=".547" stop-color="#1e6a89"/><stop offset=".551" stop-color="#1c6a89"/><stop offset=".555" stop-color="#1d698a"/><stop offset=".559" stop-color="#1e6989"/><stop offset=".563" stop-color="#1f6889"/><stop offset=".566" stop-color="#1d6789"/><stop offset=".57" stop-color="#1e678a"/><stop offset=".574" stop-color="#1e678a"/><stop offset=".578" stop-color="#1f668a"/><stop offset=".582" stop-color="#1d668a"/><stop offset=".586" stop-color="#1e658a"/><stop offset=".59" stop-color="#1f658a"/><stop offset=".594" stop-color="#20648a"/><stop offset=".598" stop-color="#1e648a"/><stop offset=".602" stop-color="#1f638a"/><stop offset=".605" stop-color="#20638a"/><stop offset=".609" stop-color="#21628a"/><stop offset=".613" stop-color="#1f628a"/><stop offset=".617" stop-color="#20618a"/><stop offset=".621" stop-color="#21618a"/><stop offset=".625" stop-color="#22608a"/><stop offset=".629" stop-color="#205f8a"/><stop offset=".633" stop-color="#215f8a"/><stop offset=".637" stop-color="#225e8a"/><stop offset=".641" stop-color="#225e8a"/><stop offset=".645" stop-color="#215d8a"/><stop offset=".648" stop-color="#225d8a"/><stop offset=".652" stop-color="#235c89"/><stop offset=".656" stop-color="#215c8a"/><stop offset=".66" stop-color="#225b8a"/><stop offset=".664" stop-color="#225b8a"/><stop offset=".668" stop-color="#235b8a"/><stop offset=".672" stop-color="#225a8a"/><stop offset=".676" stop-color="#22598a"/><stop offset=".68" stop-color="#23598a"/><stop offset=".684" stop-color="#24588a"/><stop offset=".688" stop-color="#23588a"/><stop offset=".691" stop-color="#235789"/><stop offset=".695" stop-color="#245789"/><stop offset=".699" stop-color="#255689"/><stop offset=".703" stop-color="#235589"/><stop offset=".707" stop-color="#245589"/><stop offset=".711" stop-color="#255489"/><stop offset=".715" stop-color="#255489"/><stop offset=".719" stop-color="#245389"/><stop offset=".723" stop-color="#255389"/><stop offset=".727" stop-color="#265289"/><stop offset=".73" stop-color="#265289"/><stop offset=".734" stop-color="#255189"/><stop offset=".738" stop-color="#265089"/><stop offset=".742" stop-color="#265089"/><stop offset=".746" stop-color="#274f89"/><stop offset=".75" stop-color="#254f89"/><stop offset=".754" stop-color="#264f89"/><stop offset=".758" stop-color="#274e89"/><stop offset=".762" stop-color="#274e89"/><stop offset=".766" stop-color="#264d89"/><stop offset=".77" stop-color="#274d88"/><stop offset=".773" stop-color="#274c88"/><stop offset=".777" stop-color="#284b88"/><stop offset=".781" stop-color="#274b88"/><stop offset=".785" stop-color="#284a88"/><stop offset=".789" stop-color="#284a88"/><stop offset=".793" stop-color="#294988"/><stop offset=".797" stop-color="#284988"/><stop offset=".801" stop-color="#284888"/><stop offset=".805" stop-color="#294788"/><stop offset=".809" stop-color="#2a4787"/><stop offset=".813" stop-color="#294687"/><stop offset=".816" stop-color="#294687"/><stop offset=".82" stop-color="#2a4587"/><stop offset=".824" stop-color="#2a4487"/><stop offset=".828" stop-color="#294487"/><stop offset=".832" stop-color="#2a4387"/><stop offset=".836" stop-color="#2a4386"/><stop offset=".84" stop-color="#2a4387"/><stop offset=".844" stop-color="#294287"/><stop offset=".848" stop-color="#2a4187"/><stop offset=".852" stop-color="#2b4186"/><stop offset=".855" stop-color="#2b4086"/><stop offset=".859" stop-color="#2a4086"/><stop offset=".863" stop-color="#2b3f86"/><stop offset=".867" stop-color="#2b3f86"/><stop offset=".871" stop-color="#2c3e86"/><stop offset=".875" stop-color="#2b3d85"/><stop offset=".879" stop-color="#2b3d85"/><stop offset=".883" stop-color="#2c3c85"/><stop offset=".887" stop-color="#2c3c85"/><stop offset=".891" stop-color="#2b3b85"/><stop offset=".895" stop-color="#2c3b85"/><stop offset=".898" stop-color="#2c3a85"/><stop offset=".902" stop-color="#2c3985"/><stop offset=".906" stop-color="#2b3985"/><stop offset=".91" stop-color="#2c3885"/><stop offset=".914" stop-color="#2c3885"/><stop offset=".918" stop-color="#2d3784"/><stop offset=".922" stop-color="#2c3784"/><stop offset=".926" stop-color="#2c3684"/><stop offset=".93" stop-color="#2c3684"/><stop offset=".934" stop-color="#2c3684"/><stop offset=".938" stop-color="#2c3584"/><stop offset=".941" stop-color="#2c3584"/><stop offset=".945" stop-color="#2c3484"/><stop offset=".949" stop-color="#2d3484"/><stop offset=".953" stop-color="#2c3384"/><stop offset=".957" stop-color="#2c3384"/><stop offset=".961" stop-color="#2d3284"/><stop offset=".965" stop-color="#2d3284"/><stop offset=".969" stop-color="#2c3184"/><stop offset=".973" stop-color="#2c3084"/><stop offset=".977" stop-color="#2d3084"/><stop offset=".98" stop-color="#2d2f84"/><stop offset=".984" stop-color="#2c2f83"/><stop offset=".988" stop-color="#2c2e83"/><stop offset=".992" stop-color="#2c2e83"/><stop offset="1" stop-color="#2c2e83"/></linearGradient><clipPath id="e"><path d="M540.918 296.316h8.879v8.88h-8.879zm0 0"/></clipPath><linearGradient gradientTransform="scale(105.25615) rotate(59.34 .2 5.772)" x2=".291" x1=".175" gradientUnits="userSpaceOnUse" id="f"><stop offset="0" stop-color="#c50178"/><stop offset=".031" stop-color="#c40178"/><stop offset=".063" stop-color="#c40278"/><stop offset=".094" stop-color="#c30278"/><stop offset=".125" stop-color="#c20378"/><stop offset=".156" stop-color="#c20378"/><stop offset=".188" stop-color="#c10477"/><stop offset=".219" stop-color="#c00477"/><stop offset=".25" stop-color="#bf0477"/><stop offset=".281" stop-color="#bf0577"/><stop offset=".313" stop-color="#be0577"/><stop offset=".344" stop-color="#bd0676"/><stop offset=".375" stop-color="#bd0676"/><stop offset=".406" stop-color="#bc0776"/><stop offset=".438" stop-color="#bb0777"/><stop offset=".469" stop-color="#ba0876"/><stop offset=".5" stop-color="#ba0876"/><stop offset=".531" stop-color="#ba0876"/><stop offset=".563" stop-color="#b90976"/><stop offset=".594" stop-color="#b80975"/><stop offset=".625" stop-color="#b80a75"/><stop offset=".656" stop-color="#b70a75"/><stop offset=".688" stop-color="#b60b75"/><stop offset=".719" stop-color="#b50b75"/><stop offset=".75" stop-color="#b50b75"/><stop offset=".781" stop-color="#b40c75"/><stop offset=".813" stop-color="#b40c75"/><stop offset=".844" stop-color="#b30d75"/><stop offset=".875" stop-color="#b20d74"/><stop offset=".906" stop-color="#b10d74"/><stop offset=".938" stop-color="#b10e74"/><stop offset=".969" stop-color="#b10e74"/><stop offset="1" stop-color="#af0e74"/></linearGradient><clipPath id="g"><path d="M549.797 296.316h8.875v8.88h-8.875zm0 0"/></clipPath><linearGradient gradientTransform="translate(549.795 300.757) scale(8.87801)" x2="1" gradientUnits="userSpaceOnUse" id="h"><stop offset="0" stop-color="#29235c"/><stop offset=".004" stop-color="#29235d"/><stop offset=".008" stop-color="#29235d"/><stop offset=".012" stop-color="#28245d"/><stop offset=".016" stop-color="#29245d"/><stop offset=".02" stop-color="#29245e"/><stop offset=".023" stop-color="#29245e"/><stop offset=".027" stop-color="#29255e"/><stop offset=".031" stop-color="#29255e"/><stop offset=".035" stop-color="#29255f"/><stop offset=".039" stop-color="#2a255f"/><stop offset=".043" stop-color="#2a265f"/><stop offset=".047" stop-color="#2a265f"/><stop offset=".051" stop-color="#292660"/><stop offset=".055" stop-color="#292660"/><stop offset=".059" stop-color="#292760"/><stop offset=".063" stop-color="#292760"/><stop offset=".066" stop-color="#2a2761"/><stop offset=".07" stop-color="#2a2761"/><stop offset=".074" stop-color="#2a2761"/><stop offset=".078" stop-color="#2a2761"/><stop offset=".082" stop-color="#2a2862"/><stop offset=".086" stop-color="#2a2862"/><stop offset=".09" stop-color="#292862"/><stop offset=".094" stop-color="#2a2862"/><stop offset=".098" stop-color="#2a2963"/><stop offset=".102" stop-color="#2a2963"/><stop offset=".105" stop-color="#2a2963"/><stop offset=".109" stop-color="#2a2963"/><stop offset=".113" stop-color="#2a2a64"/><stop offset=".117" stop-color="#2b2a64"/><stop offset=".121" stop-color="#2b2a65"/><stop offset=".125" stop-color="#2b2a65"/><stop offset=".129" stop-color="#2b2b65"/><stop offset=".133" stop-color="#2b2b65"/><stop offset=".137" stop-color="#2a2b66"/><stop offset=".141" stop-color="#2a2b66"/><stop offset=".145" stop-color="#2b2c66"/><stop offset=".148" stop-color="#2b2c66"/><stop offset=".152" stop-color="#2b2c67"/><stop offset=".156" stop-color="#2b2c67"/><stop offset=".16" stop-color="#2b2d68"/><stop offset=".164" stop-color="#2b2d68"/><stop offset=".168" stop-color="#2a2d68"/><stop offset=".172" stop-color="#2b2d68"/><stop offset=".176" stop-color="#2b2d69"/><stop offset=".18" stop-color="#2b2d69"/><stop offset=".184" stop-color="#2b2e69"/><stop offset=".188" stop-color="#2b2e69"/><stop offset=".191" stop-color="#2b2e6a"/><stop offset=".195" stop-color="#2c2e6a"/><stop offset=".199" stop-color="#2c2f6a"/><stop offset=".203" stop-color="#2c2f6a"/><stop offset=".207" stop-color="#2b2f6b"/><stop offset=".211" stop-color="#2b2f6b"/><stop offset=".215" stop-color="#2b306b"/><stop offset=".219" stop-color="#2b306b"/><stop offset=".223" stop-color="#2c306c"/><stop offset=".227" stop-color="#2c306c"/><stop offset=".23" stop-color="#2c316c"/><stop offset=".234" stop-color="#2c316c"/><stop offset=".238" stop-color="#2c316d"/><stop offset=".242" stop-color="#2c316d"/><stop offset=".246" stop-color="#2c326d"/><stop offset=".25" stop-color="#2c326d"/><stop offset=".254" stop-color="#2c326e"/><stop offset=".258" stop-color="#2c326e"/><stop offset=".262" stop-color="#2c336e"/><stop offset=".266" stop-color="#2c336e"/><stop offset=".27" stop-color="#2c336f"/><stop offset=".273" stop-color="#2d336f"/><stop offset=".277" stop-color="#2c3470"/><stop offset=".281" stop-color="#2c3470"/><stop offset=".285" stop-color="#2c3471"/><stop offset=".289" stop-color="#2c3471"/><stop offset=".293" stop-color="#2c3571"/><stop offset=".297" stop-color="#2c3571"/><stop offset=".301" stop-color="#2d3572"/><stop offset=".305" stop-color="#2d3572"/><stop offset=".309" stop-color="#2c3672"/><stop offset=".313" stop-color="#2c3672"/><stop offset=".316" stop-color="#2c3773"/><stop offset=".32" stop-color="#2c3773"/><stop offset=".324" stop-color="#2d3774"/><stop offset=".328" stop-color="#2d3774"/><stop offset=".332" stop-color="#2c3875"/><stop offset=".336" stop-color="#2c3875"/><stop offset=".34" stop-color="#2c3875"/><stop offset=".344" stop-color="#2c3875"/><stop offset=".348" stop-color="#2c3976"/><stop offset=".352" stop-color="#2d3976"/><stop offset=".355" stop-color="#2c3976"/><stop offset=".359" stop-color="#2c3976"/><stop offset=".363" stop-color="#2c3a77"/><stop offset=".367" stop-color="#2c3a77"/><stop offset=".371" stop-color="#2c3b77"/><stop offset=".375" stop-color="#2c3b77"/><stop offset=".379" stop-color="#2c3b78"/><stop offset=".383" stop-color="#2c3b78"/><stop offset=".387" stop-color="#2c3c79"/><stop offset=".391" stop-color="#2c3c79"/><stop offset=".395" stop-color="#2c3c7a"/><stop offset=".398" stop-color="#2c3c7a"/><stop offset=".402" stop-color="#2d3d7a"/><stop offset=".406" stop-color="#2d3d7a"/><stop offset=".41" stop-color="#2c3e7b"/><stop offset=".414" stop-color="#2c3e7b"/><stop offset=".418" stop-color="#2c3e7b"/><stop offset=".422" stop-color="#2c3e7b"/><stop offset=".426" stop-color="#2b3f7c"/><stop offset=".43" stop-color="#2d3f7c"/><stop offset=".434" stop-color="#2c3f7d"/><stop offset=".438" stop-color="#2c3f7d"/><stop offset=".441" stop-color="#2c407e"/><stop offset=".445" stop-color="#2c407e"/><stop offset=".449" stop-color="#2b417e"/><stop offset=".453" stop-color="#2d417e"/><stop offset=".457" stop-color="#2c417f"/><stop offset=".461" stop-color="#2c417f"/><stop offset=".465" stop-color="#2c4280"/><stop offset=".469" stop-color="#2c4280"/><stop offset=".473" stop-color="#2b4381"/><stop offset=".477" stop-color="#2b4381"/><stop offset=".48" stop-color="#2c4381"/><stop offset=".484" stop-color="#2c4381"/><stop offset=".488" stop-color="#2c4482"/><stop offset=".492" stop-color="#2c4482"/><stop offset=".496" stop-color="#2b4483"/><stop offset=".5" stop-color="#2b4483"/><stop offset=".504" stop-color="#2b4584"/><stop offset=".508" stop-color="#2c4584"/><stop offset=".512" stop-color="#2c4684"/><stop offset=".516" stop-color="#2c4684"/><stop offset=".52" stop-color="#2b4685"/><stop offset=".523" stop-color="#2b4685"/><stop offset=".527" stop-color="#2b4786"/><stop offset=".531" stop-color="#2c4786"/><stop offset=".535" stop-color="#2c4887"/><stop offset=".539" stop-color="#2c4887"/><stop offset=".543" stop-color="#2b4887"/><stop offset=".547" stop-color="#2b4887"/><stop offset=".551" stop-color="#2b4988"/><stop offset=".555" stop-color="#2b4988"/><stop offset=".559" stop-color="#2c4a89"/><stop offset=".563" stop-color="#2c4a89"/><stop offset=".566" stop-color="#2b4a8a"/><stop offset=".57" stop-color="#2b4a8a"/><stop offset=".574" stop-color="#2b4b8a"/><stop offset=".578" stop-color="#2b4b8a"/><stop offset=".582" stop-color="#2a4b8b"/><stop offset=".586" stop-color="#2b4c8b"/><stop offset=".59" stop-color="#2b4c8c"/><stop offset=".594" stop-color="#2b4c8c"/><stop offset=".598" stop-color="#2a4d8d"/><stop offset=".602" stop-color="#2a4d8d"/><stop offset=".605" stop-color="#2a4d8d"/><stop offset=".609" stop-color="#2b4d8d"/><stop offset=".613" stop-color="#2b4e8f"/><stop offset=".617" stop-color="#2b4e8f"/><stop offset=".621" stop-color="#2a4f8f"/><stop offset=".625" stop-color="#2a4f8f"/><stop offset=".629" stop-color="#2a5090"/><stop offset=".633" stop-color="#2a5090"/><stop offset=".637" stop-color="#2a5091"/><stop offset=".641" stop-color="#2a5091"/><stop offset=".645" stop-color="#2a5192"/><stop offset=".648" stop-color="#295292"/><stop offset=".652" stop-color="#295292"/><stop offset=".656" stop-color="#295294"/><stop offset=".66" stop-color="#2a5294"/><stop offset=".664" stop-color="#295394"/><stop offset=".668" stop-color="#295394"/><stop offset=".672" stop-color="#295495"/><stop offset=".676" stop-color="#295495"/><stop offset=".68" stop-color="#285496"/><stop offset=".684" stop-color="#285496"/><stop offset=".688" stop-color="#295597"/><stop offset=".691" stop-color="#295597"/><stop offset=".695" stop-color="#285697"/><stop offset=".699" stop-color="#285697"/><stop offset=".703" stop-color="#285698"/><stop offset=".707" stop-color="#285698"/><stop offset=".711" stop-color="#275799"/><stop offset=".715" stop-color="#295799"/><stop offset=".719" stop-color="#28589a"/><stop offset=".723" stop-color="#28589a"/><stop offset=".727" stop-color="#27589a"/><stop offset=".73" stop-color="#27589a"/><stop offset=".734" stop-color="#27599c"/><stop offset=".738" stop-color="#28599c"/><stop offset=".742" stop-color="#285a9c"/><stop offset=".746" stop-color="#285a9c"/><stop offset=".75" stop-color="#275a9d"/><stop offset=".754" stop-color="#275a9d"/><stop offset=".758" stop-color="#265b9e"/><stop offset=".762" stop-color="#265b9e"/><stop offset=".766" stop-color="#275c9f"/><stop offset=".77" stop-color="#275c9f"/><stop offset=".773" stop-color="#265c9f"/><stop offset=".777" stop-color="#265c9f"/><stop offset=".781" stop-color="#255da1"/><stop offset=".785" stop-color="#255da1"/><stop offset=".789" stop-color="#255ea1"/><stop offset=".793" stop-color="#275ea1"/><stop offset=".797" stop-color="#265fa2"/><stop offset=".801" stop-color="#265fa2"/><stop offset=".805" stop-color="#255fa3"/><stop offset=".809" stop-color="#255fa3"/><stop offset=".813" stop-color="#2460a4"/><stop offset=".816" stop-color="#2660a4"/><stop offset=".82" stop-color="#2561a5"/><stop offset=".824" stop-color="#2561a5"/><stop offset=".828" stop-color="#2462a6"/><stop offset=".832" stop-color="#2462a6"/><stop offset=".836" stop-color="#2362a6"/><stop offset=".84" stop-color="#2362a6"/><stop offset=".844" stop-color="#2563a8"/><stop offset=".848" stop-color="#2563a8"/><stop offset=".852" stop-color="#2464a8"/><stop offset=".855" stop-color="#2464a8"/><stop offset=".859" stop-color="#2364a9"/><stop offset=".863" stop-color="#2364a9"/><stop offset=".867" stop-color="#2465aa"/><stop offset=".871" stop-color="#2465aa"/><stop offset=".875" stop-color="#2366ab"/><stop offset=".879" stop-color="#2366ab"/><stop offset=".883" stop-color="#2267ac"/><stop offset=".887" stop-color="#2267ac"/><stop offset=".891" stop-color="#2167ad"/><stop offset=".895" stop-color="#2368ad"/><stop offset=".898" stop-color="#2268ae"/><stop offset=".902" stop-color="#2268ae"/><stop offset=".906" stop-color="#2169af"/><stop offset=".91" stop-color="#2169af"/><stop offset=".914" stop-color="#2069af"/><stop offset=".918" stop-color="#2069af"/><stop offset=".922" stop-color="#216ab1"/><stop offset=".926" stop-color="#216ab1"/><stop offset=".93" stop-color="#206bb1"/><stop offset=".934" stop-color="#206bb1"/><stop offset=".938" stop-color="#1f6cb2"/><stop offset=".941" stop-color="#1f6cb2"/><stop offset=".945" stop-color="#216db3"/><stop offset=".949" stop-color="#216db3"/><stop offset=".953" stop-color="#1f6db4"/><stop offset=".957" stop-color="#1f6db4"/><stop offset=".961" stop-color="#1e6eb5"/><stop offset=".965" stop-color="#1e6eb5"/><stop offset=".969" stop-color="#1d6fb6"/><stop offset=".973" stop-color="#206fb6"/><stop offset=".977" stop-color="#1f70b6"/><stop offset=".98" stop-color="#1f70b6"/><stop offset=".984" stop-color="#1d70b8"/><stop offset="1" stop-color="#1d70b8"/></linearGradient><clipPath id="i"><path d="M233.434 296.3h289.734v9.036H233.434zm0 0"/></clipPath><linearGradient gradientTransform="scale(-452.15732) rotate(17.44 1.979 -4.55)" x2=".765" x1=".148" gradientUnits="userSpaceOnUse" id="j"><stop offset="0" stop-color="#f5a152"/><stop offset=".004" stop-color="#f5a152"/><stop offset=".008" stop-color="#f5a053"/><stop offset=".012" stop-color="#f5a053"/><stop offset=".016" stop-color="#f59f54"/><stop offset=".02" stop-color="#f59f54"/><stop offset=".023" stop-color="#f59f55"/><stop offset=".027" stop-color="#f59f55"/><stop offset=".031" stop-color="#f59f55"/><stop offset=".035" stop-color="#f59e55"/><stop offset=".039" stop-color="#f59e56"/><stop offset=".043" stop-color="#f59e56"/><stop offset=".047" stop-color="#f59d57"/><stop offset=".051" stop-color="#f59d58"/><stop offset=".055" stop-color="#f49c57"/><stop offset=".059" stop-color="#f49c58"/><stop offset=".063" stop-color="#f49c58"/><stop offset=".066" stop-color="#f49c59"/><stop offset=".07" stop-color="#f49c59"/><stop offset=".074" stop-color="#f49b5a"/><stop offset=".078" stop-color="#f49b5a"/><stop offset=".082" stop-color="#f49a5a"/><stop offset=".086" stop-color="#f49a5a"/><stop offset=".09" stop-color="#f49a5b"/><stop offset=".094" stop-color="#f4995b"/><stop offset=".098" stop-color="#f4995c"/><stop offset=".102" stop-color="#f4995b"/><stop offset=".105" stop-color="#f4995c"/><stop offset=".109" stop-color="#f4995c"/><stop offset=".113" stop-color="#f4985d"/><stop offset=".117" stop-color="#f4985e"/><stop offset=".121" stop-color="#f3975d"/><stop offset=".125" stop-color="#f3975e"/><stop offset=".129" stop-color="#f3975e"/><stop offset=".133" stop-color="#f3965f"/><stop offset=".137" stop-color="#f3965f"/><stop offset=".141" stop-color="#f3965f"/><stop offset=".145" stop-color="#f3965f"/><stop offset=".148" stop-color="#f39660"/><stop offset=".152" stop-color="#f39560"/><stop offset=".156" stop-color="#f39561"/><stop offset=".16" stop-color="#f39460"/><stop offset=".164" stop-color="#f39461"/><stop offset=".168" stop-color="#f39461"/><stop offset=".172" stop-color="#f39362"/><stop offset=".176" stop-color="#f39362"/><stop offset=".18" stop-color="#f39262"/><stop offset=".184" stop-color="#f39262"/><stop offset=".188" stop-color="#f39363"/><stop offset=".191" stop-color="#f29263"/><stop offset=".195" stop-color="#f29263"/><stop offset=".199" stop-color="#f29164"/><stop offset=".203" stop-color="#f29164"/><stop offset=".207" stop-color="#f29165"/><stop offset=".211" stop-color="#f29064"/><stop offset=".215" stop-color="#f29065"/><stop offset=".219" stop-color="#f28f65"/><stop offset=".223" stop-color="#f28f66"/><stop offset=".227" stop-color="#f28f66"/><stop offset=".23" stop-color="#f28f66"/><stop offset=".234" stop-color="#f28f66"/><stop offset=".238" stop-color="#f28e67"/><stop offset=".242" stop-color="#f28e67"/><stop offset=".246" stop-color="#f28e67"/><stop offset=".25" stop-color="#f28d67"/><stop offset=".254" stop-color="#f28d68"/><stop offset=".258" stop-color="#f28c68"/><stop offset=".262" stop-color="#f28c68"/><stop offset=".266" stop-color="#f28c69"/><stop offset=".27" stop-color="#f18b69"/><stop offset=".273" stop-color="#f18b69"/><stop offset=".277" stop-color="#f18b69"/><stop offset=".281" stop-color="#f18b6a"/><stop offset=".285" stop-color="#f18a69"/><stop offset=".289" stop-color="#f18a6a"/><stop offset=".293" stop-color="#f18a6a"/><stop offset=".297" stop-color="#f1896a"/><stop offset=".301" stop-color="#f1896a"/><stop offset=".305" stop-color="#f1886b"/><stop offset=".309" stop-color="#f1886b"/><stop offset=".313" stop-color="#f1886c"/><stop offset=".316" stop-color="#f1886b"/><stop offset=".32" stop-color="#f1886c"/><stop offset=".324" stop-color="#f1876c"/><stop offset=".328" stop-color="#f1876c"/><stop offset=".332" stop-color="#f1876d"/><stop offset=".336" stop-color="#f1866d"/><stop offset=".34" stop-color="#f1866d"/><stop offset=".344" stop-color="#f0856d"/><stop offset=".348" stop-color="#f0856e"/><stop offset=".352" stop-color="#f0856e"/><stop offset=".355" stop-color="#f0846e"/><stop offset=".359" stop-color="#f0846e"/><stop offset=".363" stop-color="#f0846e"/><stop offset=".367" stop-color="#f0846e"/><stop offset=".371" stop-color="#f0846f"/><stop offset=".375" stop-color="#f0836f"/><stop offset=".379" stop-color="#f0836f"/><stop offset=".383" stop-color="#f0826f"/><stop offset=".387" stop-color="#f0826f"/><stop offset=".391" stop-color="#f0826f"/><stop offset=".395" stop-color="#f08170"/><stop offset=".398" stop-color="#f08170"/><stop offset=".402" stop-color="#f08070"/><stop offset=".406" stop-color="#f08071"/><stop offset=".41" stop-color="#f08071"/><stop offset=".414" stop-color="#f07f71"/><stop offset=".418" stop-color="#f07f71"/><stop offset=".422" stop-color="#ef7f71"/><stop offset=".426" stop-color="#ef7f71"/><stop offset=".43" stop-color="#ef7f72"/><stop offset=".434" stop-color="#ef7e71"/><stop offset=".438" stop-color="#ef7e72"/><stop offset=".441" stop-color="#ef7d72"/><stop offset=".445" stop-color="#ef7d72"/><stop offset=".449" stop-color="#ef7d72"/><stop offset=".453" stop-color="#ef7c72"/><stop offset=".457" stop-color="#ef7c72"/><stop offset=".461" stop-color="#ef7b73"/><stop offset=".465" stop-color="#ef7b73"/><stop offset=".469" stop-color="#ef7b73"/><stop offset=".473" stop-color="#ef7a74"/><stop offset=".477" stop-color="#ef7a74"/><stop offset=".48" stop-color="#ef7974"/><stop offset=".484" stop-color="#ef7974"/><stop offset=".488" stop-color="#ef7974"/><stop offset=".492" stop-color="#ef7974"/><stop offset=".496" stop-color="#ef7974"/><stop offset=".5" stop-color="#ef7874"/><stop offset=".504" stop-color="#ef7875"/><stop offset=".508" stop-color="#ee7774"/><stop offset=".512" stop-color="#ee7775"/><stop offset=".516" stop-color="#ee7775"/><stop offset=".52" stop-color="#ee7675"/><stop offset=".523" stop-color="#ee7675"/><stop offset=".527" stop-color="#ee7575"/><stop offset=".531" stop-color="#ee7575"/><stop offset=".535" stop-color="#ee7576"/><stop offset=".539" stop-color="#ee7476"/><stop offset=".543" stop-color="#ee7476"/><stop offset=".547" stop-color="#ee7376"/><stop offset=".551" stop-color="#ee7376"/><stop offset=".555" stop-color="#ee7377"/><stop offset=".559" stop-color="#ee7276"/><stop offset=".563" stop-color="#ee7277"/><stop offset=".566" stop-color="#ee7176"/><stop offset=".57" stop-color="#ee7177"/><stop offset=".574" stop-color="#ee7177"/><stop offset=".578" stop-color="#ee7077"/><stop offset=".582" stop-color="#ee7077"/><stop offset=".586" stop-color="#ed6f77"/><stop offset=".59" stop-color="#ed6f77"/><stop offset=".594" stop-color="#ed6f78"/><stop offset=".598" stop-color="#ed6e77"/><stop offset=".602" stop-color="#ed6e78"/><stop offset=".605" stop-color="#ed6d77"/><stop offset=".609" stop-color="#ed6d78"/><stop offset=".613" stop-color="#ed6d78"/><stop offset=".617" stop-color="#ed6c78"/><stop offset=".621" stop-color="#ed6c79"/><stop offset=".625" stop-color="#ed6b78"/><stop offset=".629" stop-color="#ed6b79"/><stop offset=".633" stop-color="#ed6b79"/><stop offset=".637" stop-color="#ed6a79"/><stop offset=".641" stop-color="#ed6a79"/><stop offset=".645" stop-color="#ed6a79"/><stop offset=".648" stop-color="#ed6a79"/><stop offset=".652" stop-color="#ed6a79"/><stop offset=".656" stop-color="#ed6979"/><stop offset=".66" stop-color="#ed697a"/><stop offset=".664" stop-color="#ed6879"/><stop offset=".668" stop-color="#ed687a"/><stop offset=".672" stop-color="#ed687a"/><stop offset=".676" stop-color="#ec677a"/><stop offset=".68" stop-color="#ec677a"/><stop offset=".684" stop-color="#ec667a"/><stop offset=".688" stop-color="#ec667a"/><stop offset=".691" stop-color="#ec667a"/><stop offset=".695" stop-color="#ec657a"/><stop offset=".699" stop-color="#ec657a"/><stop offset=".703" stop-color="#ec647a"/><stop offset=".707" stop-color="#ec647a"/><stop offset=".711" stop-color="#ec637a"/><stop offset=".715" stop-color="#ec637a"/><stop offset=".719" stop-color="#ec637b"/><stop offset=".723" stop-color="#ec627a"/><stop offset=".727" stop-color="#ec627b"/><stop offset=".73" stop-color="#ec617a"/><stop offset=".734" stop-color="#ec617b"/><stop offset=".738" stop-color="#ec617b"/><stop offset=".742" stop-color="#ec607b"/><stop offset=".746" stop-color="#ec607b"/><stop offset=".75" stop-color="#ec5f7b"/><stop offset=".754" stop-color="#ec5f7b"/><stop offset=".758" stop-color="#ec5f7b"/><stop offset=".762" stop-color="#ec5e7b"/><stop offset=".766" stop-color="#ec5e7b"/><stop offset=".77" stop-color="#eb5d7b"/><stop offset=".773" stop-color="#eb5d7b"/><stop offset=".777" stop-color="#eb5d7c"/><stop offset=".781" stop-color="#eb5c7b"/><stop offset=".785" stop-color="#eb5c7c"/><stop offset=".789" stop-color="#eb5b7b"/><stop offset=".793" stop-color="#eb5b7c"/><stop offset=".797" stop-color="#eb5b7c"/><stop offset=".801" stop-color="#eb597c"/><stop offset=".805" stop-color="#eb597c"/><stop offset=".809" stop-color="#eb587c"/><stop offset=".813" stop-color="#eb587c"/><stop offset=".816" stop-color="#eb587c"/><stop offset=".82" stop-color="#eb577c"/><stop offset=".824" stop-color="#eb577c"/><stop offset=".828" stop-color="#eb567c"/><stop offset=".832" stop-color="#eb567c"/><stop offset=".836" stop-color="#eb567d"/><stop offset=".84" stop-color="#ea557c"/><stop offset=".844" stop-color="#ea557d"/><stop offset=".848" stop-color="#ea547c"/><stop offset=".852" stop-color="#ea547d"/><stop offset=".855" stop-color="#ea547d"/><stop offset=".859" stop-color="#ea537d"/><stop offset=".863" stop-color="#ea537d"/><stop offset=".867" stop-color="#ea527d"/><stop offset=".871" stop-color="#ea527d"/><stop offset=".875" stop-color="#ea527d"/><stop offset=".879" stop-color="#ea507d"/><stop offset=".883" stop-color="#ea507d"/><stop offset=".887" stop-color="#ea4f7d"/><stop offset=".891" stop-color="#ea4f7d"/><stop offset=".895" stop-color="#ea4f7d"/><stop offset=".898" stop-color="#ea4e7d"/><stop offset=".902" stop-color="#ea4e7d"/><stop offset=".906" stop-color="#ea4d7d"/><stop offset=".91" stop-color="#ea4d7d"/><stop offset=".914" stop-color="#ea4c7d"/><stop offset=".918" stop-color="#ea4c7d"/><stop offset=".922" stop-color="#ea4c7d"/><stop offset=".926" stop-color="#ea4b7d"/><stop offset=".93" stop-color="#ea4b7d"/><stop offset=".934" stop-color="#e9497d"/><stop offset=".938" stop-color="#e9497d"/><stop offset=".941" stop-color="#e9497e"/><stop offset=".945" stop-color="#e9487d"/><stop offset=".949" stop-color="#e9487e"/><stop offset=".953" stop-color="#e9477d"/><stop offset=".957" stop-color="#e9477d"/><stop offset=".961" stop-color="#e9477e"/><stop offset=".965" stop-color="#e9467d"/><stop offset=".969" stop-color="#e9467e"/><stop offset=".973" stop-color="#e9447d"/><stop offset=".977" stop-color="#e9447e"/><stop offset=".98" stop-color="#e9447e"/><stop offset=".984" stop-color="#e9437e"/><stop offset=".988" stop-color="#e9437e"/><stop offset=".992" stop-color="#e9427e"/><stop offset=".996" stop-color="#e9427e"/><stop offset="1" stop-color="#e9427e"/></linearGradient></defs><g clip-path="url(#a)" transform="matrix(1.1734 0 0 1.1734 -271.26 -258.53)"><path d="M536.379 301.688l-7.848-9.711-9.71 7.847 7.847 9.711zm0 0" fill="url(#b)"/></g><g clip-path="url(#c)" transform="matrix(1.1734 0 0 1.1734 -271.26 -258.53)"><path d="M532.04 296.316v8.88h8.878v-8.88zm0 0" fill="url(#d)"/></g><g clip-path="url(#e)" transform="matrix(1.1734 0 0 1.1734 -271.26 -258.53)"><path d="M547.488 292.422l-10.465 6.203 6.204 10.465 10.46-6.203zm0 0" fill="url(#f)"/></g><g clip-path="url(#g)" transform="matrix(1.1734 0 0 1.1734 -271.26 -258.53)"><path d="M549.797 296.316v8.88h8.875v-8.88zm0 0" fill="url(#h)"/></g><g clip-path="url(#i)" transform="matrix(1.1734 0 0 1.1734 -271.26 -258.53)"><path d="M497.145 388.176l28.605-91.067-266.293-83.652-28.61 91.066zm0 0" fill="url(#j)"/></g><path d="M2.497 89.152H449.35v10.602H2.497zm0 0" fill="none" stroke="#1c1c19" stroke-width=".46936400000000006" stroke-miterlimit="10"/><g fill="#1c1c19" transform="matrix(1.1734 0 0 1.1734 -271.26 -258.53)"><use height="100%" width="100%" y="281.824" x="226.251" xlink:href="#k"/><use height="100%" width="100%" y="281.824" x="275.451" xlink:href="#l"/><use height="100%" width="100%" y="281.824" x="324.651" xlink:href="#m"/><use height="100%" width="100%" y="281.824" x="373.851" xlink:href="#n"/><use height="100%" width="100%" y="281.824" x="423.051" xlink:href="#o"/><use height="100%" width="100%" y="281.824" x="472.251" xlink:href="#l"/><use height="100%" width="100%" y="281.824" x="521.451" xlink:href="#p"/><use height="100%" width="100%" y="281.824" x="570.651" xlink:href="#k"/></g><g fill="#1c1c19" transform="matrix(1.1734 0 0 1.1734 -271.26 -258.53)"><use height="100%" width="100%" y="345.454" x="406.085" xlink:href="#q"/><use height="100%" width="100%" y="345.454" x="427.085" xlink:href="#r"/><use height="100%" width="100%" y="345.454" x="448.085" xlink:href="#r"/><use height="100%" width="100%" y="345.454" x="469.085" xlink:href="#s"/><use height="100%" width="100%" y="345.454" x="490.085" xlink:href="#t"/><use height="100%" width="100%" y="345.454" x="511.085" xlink:href="#u"/><use height="100%" width="100%" y="345.454" x="532.085" xlink:href="#v"/><use height="100%" width="100%" y="345.454" x="553.085" xlink:href="#q"/><use height="100%" width="100%" y="345.454" x="574.085" xlink:href="#s"/><use height="100%" width="100%" y="345.454" x="595.085" xlink:href="#r"/></g></svg>