<svg xmlns="http://www.w3.org/2000/svg" width="93.7" height="37.8"><style>.st0{fill:#4c83c3}</style><path class="st0" d="M93.7 2.7H78.1l1-2.7h14.6zM52.1 0h14.5l.9 2.7H52.1V0zM40.6 0c2.4.2 4.5 1.1 6.2 2.7H20.5V0h20.1zM0 0h18.2v2.7H0zM93.7 7.7H76.3l.9-2.7h16.4v2.7zM69.4 7.7H52.1V5.1h16.3zM48.9 5.1c.3.9.8 1.6.8 2.7H20.6V5.1h28.3zM0 5.1h18.2v2.7H0zM74.6 12.8l.9-2.7h13.1v2.7zM70.2 10.1l1 2.7H57.3v-2.7zM49.9 10.1c0 .9-.1 1.9-.4 2.7h-8v-2.7h8.4zM5.1 10.1h7.8v2.7H5.1zM25.9 10.1h7.8v2.7h-7.8zM65 15.7v2h-7.7V15H72l.9 2.5.9-2.5h14.8v2.7h-7.7v-2l-.7 2H65.7l-.7-2zM25.9 15.1h22.5c-.5.9-1.4 2-2.2 2.7H26c-.1-.1-.1-2.7-.1-2.7zM5.1 15.1h7.8v2.7H5.1zM80.9 20.1h7.7v2.7h-7.7zM65 20.1h-7.7v2.7H65v-2.7zM79.4 20.1l-.9 2.7H67.6l-1-2.7h12.8zM25.9 20.1h20.2c.9.8 1.8 1.7 2.4 2.7H25.9v-2.7zM12.9 22.8v-2.7H5.1v2.7zM80.9 25.2h7.7v2.7h-7.7zM57.3 25.2H65v2.7h-7.7zM76.6 27.9s.9-2.7 1-2.7h-9.3l1 2.7h7.3zM25.9 27.8v-2.7h7.9v2.7h-7.9zM49.6 25.2c.4.8.4 1.8.5 2.7h-8.4v-2.7h7.9zM5.1 25.2h7.8v2.7H5.1zM80.9 30.1h12.8v2.7H80.9zM52.1 30.1h12.8v2.7H52.1zM74.9 32.8H71l-1-2.7h5.8zM0 30.1v2.7h18.2v-2.7H0zM49.8 30.1c-.2.9-.4 2-1 2.7H20.6v-2.7h29.2zM73.1 37.8h-.3l-1-2.6h2.3zM80.9 35.2h12.8v2.7H80.9zM20.6 37.8v-2.7H47c-1.8 1.7-4.2 2.6-6.8 2.7H20.6M52.1 35.2h12.8v2.7H52.1zM18.2 35.2v2.7H0v-2.7h18.2z"/></svg>
