<svg xmlns="http://www.w3.org/2000/svg" height="84.037" width="300"><defs><clipPath id="a"><path d="M0 595h842V0H0z"/></clipPath></defs><g clip-path="url(#a)" transform="matrix(1.33333 0 0 -1.33333 0 84.037)"><path d="M169.254 13.85c0 5.504 4.462 9.967 9.967 9.967 5.505 0 9.967-4.463 9.967-9.968 0-5.504-4.462-9.967-9.967-9.967-5.505 0-9.967 4.463-9.967 9.967" fill="#f68512"/><path d="M169.254 13.85c0 5.504 4.462 9.967 9.967 9.967 5.505 0 9.967-4.463 9.967-9.968 0-5.504-4.462-9.967-9.967-9.967-5.505 0-9.967 4.463-9.967 9.967z" fill="none" stroke="#f68512" stroke-width=".390685" stroke-miterlimit="3.864"/><path d="M58.778 39.447c-.3 3.407-1.53 5.965-3.689 7.673-2.16 1.709-5.305 2.564-9.434 2.564-2.317.01-4.454-.316-6.41-.98-1.956-.663-3.532-1.726-4.728-3.189-1.195-1.463-1.81-3.39-1.842-5.778.06-2.736.852-4.728 2.373-5.978 1.522-1.25 3.41-2.1 5.661-2.552 2.253-.453 4.506-.85 6.758-1.193 2.252-.342 4.14-.974 5.661-1.896 1.522-.922 2.313-2.478 2.374-4.666-.029-1.946-.863-3.602-2.503-4.968-1.64-1.365-3.914-2.078-6.82-2.138-2.962-.042-5.353.56-7.172 1.806-1.82 1.245-2.855 3.38-3.105 6.408H32.2c.15-2.606.82-4.76 2.012-6.46 1.19-1.699 2.759-2.963 4.706-3.794 1.947-.83 4.13-1.243 6.547-1.24 3.046.029 5.586.535 7.622 1.52 2.037.985 3.566 2.278 4.587 3.88a9.544 9.544 0 0 1 1.533 5.224c-.06 2.937-.852 5.1-2.375 6.49-1.52 1.39-3.408 2.34-5.66 2.853a78.113 78.113 0 0 1-6.758 1.23c-2.252.307-4.14.849-5.66 1.623-1.523.775-2.314 2.118-2.376 4.03.01 2.113.835 3.722 2.475 4.824 1.64 1.103 4.034 1.657 7.183 1.664 2.4.016 4.453-.534 6.161-1.648 1.71-1.115 2.669-2.884 2.878-5.309z" fill="#FFFFFF" fill-rule="evenodd"/><path d="M58.778 39.447c-.3 3.407-1.53 5.965-3.689 7.673-2.16 1.709-5.305 2.564-9.434 2.564-2.317.01-4.454-.316-6.41-.98-1.956-.663-3.532-1.726-4.728-3.189-1.195-1.463-1.81-3.39-1.842-5.778.06-2.736.852-4.728 2.373-5.978 1.522-1.25 3.41-2.1 5.661-2.552 2.253-.453 4.506-.85 6.758-1.193 2.252-.342 4.14-.974 5.661-1.896 1.522-.922 2.313-2.478 2.374-4.666-.029-1.946-.863-3.602-2.503-4.968-1.64-1.365-3.914-2.078-6.82-2.138-2.962-.042-5.353.56-7.172 1.806-1.82 1.245-2.855 3.38-3.105 6.408H32.2c.15-2.606.82-4.76 2.012-6.46 1.19-1.699 2.759-2.963 4.706-3.794 1.947-.83 4.13-1.243 6.547-1.24 3.046.029 5.586.535 7.622 1.52 2.037.985 3.566 2.278 4.587 3.88a9.544 9.544 0 0 1 1.533 5.224c-.06 2.937-.852 5.1-2.375 6.49-1.52 1.39-3.408 2.34-5.66 2.853a78.113 78.113 0 0 1-6.758 1.23c-2.252.307-4.14.849-5.66 1.623-1.523.775-2.314 2.118-2.376 4.03.01 2.113.835 3.722 2.475 4.824 1.64 1.103 4.034 1.657 7.183 1.664 2.4.016 4.453-.534 6.161-1.648 1.71-1.115 2.669-2.884 2.878-5.309z" fill="none" stroke="#FFFFFF" stroke-width=".1953425" stroke-miterlimit="3.864"/><path d="M88.3 23.849c-1.079-2.261-2.55-4.069-4.412-5.421-1.863-1.353-3.979-2.048-6.348-2.083-2.85.044-5.19.774-7.025 2.19-1.834 1.416-3.192 3.259-4.075 5.529-.882 2.27-1.322 4.707-1.316 7.311.023 2.757.574 5.266 1.654 7.526 1.08 2.262 2.551 4.069 4.414 5.422 1.862 1.354 3.978 2.047 6.348 2.082 2.849-.043 5.19-.774 7.024-2.19 1.834-1.415 3.192-3.258 4.075-5.529.882-2.269 1.322-4.707 1.316-7.31-.023-2.758-.574-5.267-1.654-7.527m3.66 16.89c-1.366 2.747-3.281 4.916-5.746 6.507-2.465 1.591-5.357 2.405-8.675 2.438-2.9-.033-5.594-.847-8.083-2.438-2.49-1.591-4.504-3.76-6.042-6.506-1.539-2.746-2.33-5.868-2.375-9.365.02-3.496.713-6.618 2.079-9.365 1.366-2.745 3.28-4.914 5.745-6.506 2.466-1.592 5.357-2.404 8.676-2.438 2.899.034 5.594.846 8.083 2.438 2.49 1.592 4.503 3.76 6.042 6.506 1.537 2.747 2.33 5.869 2.374 9.365-.02 3.497-.713 6.62-2.078 9.365" fill="#FFFFFF" fill-rule="evenodd"/><path d="M61.04 31.375c.02-3.497.713-6.618 2.08-9.364 1.364-2.746 3.28-4.915 5.745-6.506 2.465-1.593 5.356-2.405 8.675-2.44 2.899.035 5.593.847 8.083 2.44 2.49 1.591 4.503 3.76 6.041 6.506 1.539 2.746 2.33 5.867 2.375 9.364-.02 3.497-.713 6.619-2.079 9.365-1.365 2.746-3.28 4.915-5.745 6.506-2.465 1.592-5.356 2.404-8.675 2.438-2.9-.034-5.594-.846-8.083-2.438-2.49-1.591-4.504-3.76-6.042-6.506-1.538-2.746-2.33-5.868-2.375-9.365z" fill="none" stroke="#FFFFFF" stroke-width=".1953425" stroke-miterlimit="3.864"/><path d="M89.955 31.375c-.022-2.757-.574-5.265-1.654-7.526-1.08-2.26-2.551-4.068-4.413-5.421-1.863-1.354-3.979-2.048-6.348-2.082-2.85.043-5.19.773-7.025 2.189-1.834 1.416-3.192 3.259-4.075 5.529-.882 2.27-1.321 4.707-1.316 7.311.023 2.757.574 5.266 1.654 7.526 1.08 2.261 2.551 4.069 4.413 5.422 1.863 1.353 3.98 2.047 6.349 2.082 2.849-.043 5.19-.773 7.025-2.189 1.833-1.417 3.191-3.26 4.074-5.53.883-2.269 1.322-4.707 1.316-7.311z" fill="none" stroke="#FFFFFF" stroke-width=".1953425" stroke-miterlimit="3.864"/><path d="M111.521 32.87h-10.466V45.34h10.466c1.873.003 3.409-.51 4.609-1.54 1.2-1.03 1.82-2.596 1.861-4.695-.04-2.1-.66-3.665-1.861-4.695-1.2-1.03-2.736-1.544-4.609-1.541m10.12-16.15c-.286 1.006-.427 2.171-.421 3.497v3.866c.015 1.65-.111 2.945-.377 3.882-.266.939-.765 1.667-1.495 2.186-.73.52-1.786.976-3.164 1.369v.097c1.644.616 2.966 1.578 3.968 2.885 1.001 1.307 1.516 2.874 1.543 4.7-.043 3.079-.93 5.416-2.66 7.012-1.73 1.596-4.045 2.399-6.943 2.407h-14.74V14.13h3.703V29.59h10.895c2.063.03 3.514-.344 4.353-1.123.838-.78 1.243-2.143 1.213-4.095v-5.17c.005-1.352.102-2.38.29-3.08.19-.7.44-1.364.755-1.993h4.466c-.637.722-1.1 1.586-1.385 2.591" fill="#FFFFFF" fill-rule="evenodd"/><path d="M123.027 14.13c-.638.72-1.099 1.585-1.386 2.59-.285 1.006-.426 2.171-.421 3.497v3.866c.014 1.65-.11 2.944-.377 3.882-.266.939-.764 1.667-1.496 2.186-.73.52-1.785.976-3.163 1.369v.096c1.644.617 2.966 1.579 3.967 2.886 1.002 1.307 1.516 2.874 1.544 4.7-.043 3.079-.93 5.416-2.66 7.011-1.73 1.597-4.045 2.4-6.943 2.409H97.351V14.13h3.704v15.46h10.894c2.064.031 3.515-.344 4.354-1.123.839-.78 1.243-2.144 1.213-4.094v-5.17c.005-1.353.102-2.38.29-3.081.19-.7.441-1.364.755-1.992z" fill="none" stroke="#FFFFFF" stroke-width=".1953425" stroke-miterlimit="3.864"/><path d="M101.055 45.342h10.466c1.873.003 3.409-.51 4.61-1.541 1.2-1.03 1.82-2.595 1.86-4.695-.04-2.1-.66-3.665-1.86-4.695-1.201-1.03-2.737-1.544-4.61-1.54h-10.466z" fill="none" stroke="#FFFFFF" stroke-width=".1953425" stroke-miterlimit="3.864"/><path d="M125.003 14.13h3.704v34.492h-3.704z" fill="#FFFFFF" fill-rule="evenodd"/><path d="M125.003 14.13h3.704v34.492h-3.704z" fill="none" stroke="#FFFFFF" stroke-width=".1953425" stroke-miterlimit="3.864"/><path d="M132.208 14.13h3.704v28.458h.094l20.98-28.458h3.704v34.492h-3.705V20.598h-.094l-21.027 28.024h-3.656z" fill="#FFFFFF" fill-rule="evenodd"/><path d="M132.208 14.13h3.704v28.458h.094l20.98-28.458h3.704v34.492h-3.705V20.598h-.094l-21.027 28.024h-3.656z" fill="none" stroke="#FFFFFF" stroke-width=".1953425" stroke-miterlimit="3.864"/><path d="M161.506 48.621v-3.473h10.557V14.13h3.704v31.02h10.558v3.472z" fill="#FFFFFF" fill-rule="evenodd"/><path d="M161.506 48.621v-3.473h10.557V14.13h3.704v31.02h10.558v3.472z" fill="none" stroke="#FFFFFF" stroke-width=".1953425" stroke-miterlimit="3.864"/><path d="M185.054 14.327l4.011 19.41h-.588l-4.012-19.41z" fill="#FFFFFF" fill-rule="evenodd"/><path d="M185.054 14.327l4.011 19.41h-.588l-4.012-19.41z" fill="none" stroke="#FFFFFF" stroke-width=".1953425" stroke-miterlimit="3.864"/><path d="M196.124 16.024c-1.028-.96-2.392-1.454-4.089-1.482-.992-.005-1.827.228-2.504.7s-1.03 1.208-1.057 2.21c.027 1.126.31 1.97.851 2.53.54.56 1.225.939 2.054 1.134.829.195 1.69.307 2.583.336.534.004 1.125.02 1.771.047.647.028 1.247.099 1.801.211.554.113.96.297 1.22.554l.053-.054-.564-2.418c-.384-1.552-1.09-2.808-2.12-3.768m1.959.585l1.58 6.826c.056.27.105.541.147.817.042.275.064.574.066.897-.018 1.204-.403 2.086-1.157 2.646-.753.56-1.767.837-3.041.831-1.442 0-2.647-.345-3.614-1.034-.966-.69-1.635-1.803-2.007-3.34h.533c.297 1.22.874 2.165 1.73 2.835.856.669 1.975 1.002 3.357.998 1.075.02 1.947-.188 2.615-.622.67-.432 1.02-1.204 1.052-2.314-.014-1.15-.273-1.939-.777-2.367-.504-.428-1.163-.667-1.979-.717-.816-.05-1.7-.084-2.652-.1a11.28 11.28 0 0 1-2.886-.342c-.906-.233-1.646-.675-2.22-1.326-.573-.651-.869-1.599-.888-2.844.039-1.228.457-2.113 1.254-2.655.797-.542 1.744-.808 2.84-.797 1.313 0 2.42.264 3.323.794.902.53 1.668 1.325 2.297 2.385h.054l-.172-.66a3.662 3.662 0 0 1-.093-.864c.001-.5.123-.865.362-1.096.24-.23.582-.344 1.028-.342.264-.003.567.032.908.11v.54c-.146-.04-.299-.069-.457-.085a4.404 4.404 0 0 0-.478-.024.884.884 0 0 0-.577.163c-.162.12-.247.364-.255.734.002.199.012.367.034.507.02.14.046.289.073.446" fill="#FFFFFF" fill-rule="evenodd"/><path d="M198.243 19.792c-.384-1.552-1.09-2.808-2.119-3.768-1.028-.96-2.392-1.454-4.09-1.482-.991-.005-1.826.229-2.503.7-.677.472-1.03 1.209-1.057 2.21.027 1.126.31 1.97.852 2.53.54.56 1.224.939 2.053 1.133.829.196 1.69.308 2.583.336.535.004 1.125.02 1.772.048.646.028 1.246.099 1.8.211.555.113.96.297 1.219.554l.054-.055z" fill="none" stroke="#FFFFFF" stroke-width=".1953425" stroke-miterlimit="3.864"/><path d="M190.589 24.252c.297 1.22.874 2.165 1.73 2.835.856.669 1.975 1.002 3.357 1 1.075.018 1.947-.19 2.615-.624.67-.433 1.02-1.205 1.052-2.314-.015-1.15-.273-1.939-.777-2.367-.504-.428-1.163-.666-1.979-.717-.816-.05-1.7-.084-2.652-.1a11.315 11.315 0 0 1-2.886-.342c-.906-.233-1.646-.676-2.22-1.326-.573-.651-.869-1.6-.888-2.845.039-1.227.457-2.11 1.254-2.654.797-.542 1.744-.808 2.84-.797 1.313 0 2.42.265 3.323.794.902.53 1.668 1.324 2.297 2.385h.054l-.172-.66a3.657 3.657 0 0 1-.093-.864c.001-.5.123-.865.362-1.095.24-.232.582-.345 1.028-.343a3.94 3.94 0 0 1 .908.109v.54c-.146-.04-.299-.068-.457-.085a4.404 4.404 0 0 0-.478-.023.88.88 0 0 0-.577.163c-.162.12-.247.364-.255.734.002.198.012.367.034.507.02.14.046.288.073.446l1.58 6.827c.056.268.105.54.147.816.042.275.064.574.066.897-.018 1.204-.403 2.085-1.157 2.646-.753.56-1.767.837-3.041.831-1.442 0-2.647-.345-3.614-1.035-.966-.69-1.635-1.802-2.007-3.34z" fill="none" stroke="#FFFFFF" stroke-width=".1953425" stroke-miterlimit="3.864"/><path d="M213.048 19.26c-.48-1.325-1.211-2.434-2.19-3.327-.979-.892-2.212-1.356-3.701-1.391-1.416.023-2.501.5-3.256 1.431-.756.93-1.125 2.176-1.108 3.736.02 1.268.294 2.54.82 3.815.526 1.276 1.284 2.347 2.277 3.212.993.865 2.2 1.315 3.623 1.35 1.384-.028 2.438-.488 3.163-1.38.724-.892 1.089-2.046 1.094-3.461 0-1.332-.24-2.66-.722-3.985m.064 7.766c-.794 1.025-1.994 1.558-3.6 1.6-1.318-.023-2.463-.384-3.433-1.082a7.19 7.19 0 0 1-2.27-2.695l-.053.054 1.847 8.835h-.562l-4.065-19.41h.562l.856 4.021h.054c.11-1.3.583-2.344 1.42-3.132.836-.79 1.932-1.195 3.289-1.216 1.605.034 2.936.51 3.994 1.43 1.058.919 1.847 2.08 2.37 3.483.521 1.404.782 2.847.78 4.33.002 1.498-.395 2.759-1.19 3.782" fill="#FFFFFF" fill-rule="evenodd"/><path d="M213.77 23.245c.001-1.332-.24-2.66-.722-3.985-.48-1.325-1.212-2.434-2.19-3.327-.979-.892-2.212-1.356-3.701-1.391-1.415.023-2.501.5-3.256 1.43-.756.932-1.125 2.177-1.108 3.737.021 1.268.294 2.54.82 3.815.525 1.276 1.285 2.347 2.277 3.212.993.865 2.2 1.315 3.623 1.35 1.384-.028 2.438-.49 3.163-1.38.724-.892 1.089-2.046 1.094-3.461z" fill="none" stroke="#FFFFFF" stroke-width=".1953425" stroke-miterlimit="3.864"/><path d="M205.603 33.738h-.562l-4.065-19.41h.561l.858 4.021h.053c.11-1.3.583-2.344 1.42-3.132.836-.79 1.933-1.194 3.288-1.216 1.606.033 2.937.51 3.995 1.43 1.058.92 1.847 2.08 2.369 3.483.522 1.403.783 2.847.781 4.33.002 1.497-.394 2.759-1.19 3.783-.794 1.024-1.993 1.556-3.599 1.599-1.318-.023-2.463-.384-3.433-1.083a7.188 7.188 0 0 1-2.27-2.694l-.052.054z" fill="none" stroke="#FFFFFF" stroke-width=".1953425" stroke-miterlimit="3.864"/><path d="M14.406 62.834c.839-1.219 1.439-2.084 2.124-3.189-1.562-1.637-12.227-15.45-13.616-21.774-.227-1.032-.994-3.466-.73-9.47-.528.633-1.768 2.646-2.042 6.95-.292 4.562 2.675 11.205 4.272 13.503.954 1.78 7.554 11.352 9.992 13.98" fill="#f68512" fill-rule="evenodd"/><path d="M14.406 62.834c.839-1.219 1.439-2.084 2.124-3.189-1.562-1.637-12.227-15.45-13.616-21.774-.227-1.032-.994-3.466-.73-9.47-.528.633-1.768 2.646-2.042 6.95-.292 4.562 2.675 11.205 4.272 13.503.954 1.78 7.554 11.352 9.992 13.98z" fill="none" stroke="#f68512" stroke-width=".24300607" stroke-miterlimit="3.864"/><path d="M17.361 57.348c.838-1.22 1.438-2.085 2.124-3.19-1.562-1.637-12.228-15.45-13.616-21.773-.228-1.033-.995-3.467-.731-9.47-.527.633-1.767 2.646-2.043 6.95-.29 4.561 2.677 11.205 4.274 13.502.953 1.781 7.553 11.353 9.992 13.98" fill="#f68512" fill-rule="evenodd"/><path d="M17.361 57.348c.838-1.22 1.438-2.085 2.124-3.19-1.562-1.637-12.228-15.45-13.616-21.773-.228-1.033-.995-3.467-.731-9.47-.527.633-1.767 2.646-2.043 6.95-.29 4.561 2.677 11.205 4.274 13.502.953 1.781 7.553 11.353 9.992 13.98z" fill="none" stroke="#f68512" stroke-width=".24300607" stroke-miterlimit="3.864"/><path d="M20.315 51.861c.839-1.219 1.439-2.084 2.124-3.189C20.877 47.035 10.21 33.222 8.823 26.9c-.228-1.033-.994-3.467-.73-9.47-.528.632-1.768 2.645-2.043 6.95-.291 4.561 2.676 11.205 4.273 13.502.953 1.78 7.553 11.352 9.992 13.98" fill="#f68512" fill-rule="evenodd"/><path d="M20.315 51.861c.839-1.219 1.439-2.084 2.124-3.189C20.877 47.035 10.21 33.222 8.823 26.9c-.228-1.033-.994-3.467-.73-9.47-.528.632-1.768 2.645-2.043 6.95-.291 4.561 2.676 11.205 4.273 13.502.953 1.78 7.553 11.352 9.992 13.98z" fill="none" stroke="#f68512" stroke-width=".24300607" stroke-miterlimit="3.864"/><path d="M10.625.194c-.838 1.219-1.438 2.084-2.123 3.189 1.562 1.637 12.227 15.45 13.616 21.773.226 1.032.994 3.467.73 9.47.528-.632 1.768-2.645 2.042-6.949.292-4.562-2.675-11.206-4.272-13.503-.954-1.78-7.554-11.352-9.993-13.98" fill="#f68512" fill-rule="evenodd"/><path d="M10.625.194c-.838 1.219-1.438 2.084-2.123 3.189 1.562 1.637 12.227 15.45 13.616 21.773.226 1.032.994 3.467.73 9.47.528-.632 1.768-2.645 2.042-6.949.292-4.562-2.675-11.206-4.272-13.503-.954-1.78-7.554-11.352-9.993-13.98z" fill="none" stroke="#f68512" stroke-width=".24300607" stroke-miterlimit="3.864"/><path d="M7.671 5.68C6.833 6.9 6.233 7.765 5.547 8.87c1.563 1.638 12.227 15.45 13.617 21.774.226 1.033.994 3.467.73 9.47.528-.633 1.768-2.646 2.042-6.95.291-4.561-2.676-11.205-4.273-13.503-.954-1.78-7.553-11.352-9.992-13.98" fill="#f68512" fill-rule="evenodd"/><path d="M7.671 5.68C6.833 6.9 6.233 7.765 5.547 8.87c1.563 1.638 12.227 15.45 13.617 21.774.226 1.033.994 3.467.73 9.47.528-.633 1.768-2.646 2.042-6.95.291-4.561-2.676-11.205-4.273-13.503-.954-1.78-7.553-11.352-9.992-13.98z" fill="none" stroke="#f68512" stroke-width=".24300607" stroke-miterlimit="3.864"/><path d="M4.717 11.167c-.839 1.219-1.439 2.084-2.124 3.188 1.562 1.638 12.228 15.45 13.616 21.774.228 1.033.994 3.467.73 9.47.528-.633 1.768-2.645 2.043-6.95.29-4.56-2.676-11.205-4.273-13.502-.953-1.78-7.554-11.353-9.992-13.98" fill="#f68512" fill-rule="evenodd"/><path d="M4.717 11.167c-.839 1.219-1.439 2.084-2.124 3.188 1.562 1.638 12.228 15.45 13.616 21.774.228 1.033.994 3.467.73 9.47.528-.633 1.768-2.645 2.043-6.95.29-4.56-2.676-11.205-4.273-13.502-.953-1.78-7.554-11.353-9.992-13.98z" fill="none" stroke="#f68512" stroke-width=".24300607" stroke-miterlimit="3.864"/><path d="M218.8 17.237c.049.57-.077.973-.378 1.21-.3.238-.706.352-1.215.345-.28 0-.545-.044-.792-.135-.248-.09-.45-.23-.607-.42-.156-.19-.237-.432-.242-.728.007-.293.089-.52.245-.682.157-.163.351-.29.58-.38.231-.09.459-.174.685-.251.29-.097.553-.217.789-.36.235-.142.36-.38.373-.71-.005-.292-.085-.526-.24-.7a1.3 1.3 0 0 0-.592-.378 2.394 2.394 0 0 0-.753-.113c-.537-.007-.946.11-1.225.35-.28.239-.385.641-.313 1.207h-.196c0-.061-.004-.12-.01-.178a2.23 2.23 0 0 1-.008-.178c.013-.522.185-.886.517-1.091.332-.206.744-.305 1.235-.296.305-.002.592.042.86.132.267.09.485.236.653.438.168.202.254.471.259.807-.01.299-.097.53-.262.696a1.704 1.704 0 0 1-.6.384 18.2 18.2 0 0 1-.694.252c-.289.097-.544.217-.765.36-.222.143-.34.373-.351.69.005.271.083.487.233.648.15.16.335.276.556.347.221.07.443.104.665.103.476.003.844-.104 1.1-.323.258-.218.36-.567.306-1.046zM220.19 13.861l.516 2.42a4.464 4.464 0 0 0 .328.966c.07.146.18.32.332.525.152.204.342.386.571.545a1.433 1.433 0 0 0 1.132.213l.037.187c-.06.013-.12.024-.182.03-.061.005-.128.008-.202.008a1.624 1.624 0 0 1-1.028-.367 2.77 2.77 0 0 1-.725-.936l-.019.019.14.59.131.619h-.206l-1.021-4.819zM223.594 13.861L225 20.555h-.206l-1.406-6.694z" fill="#FFFFFF" fill-rule="evenodd"/></g></svg>